<?xml version="1.0" standalone="no"?>
<!DOCTYPE svg PUBLIC "-//W3C//DTD SVG 20010904//EN"
 "http://www.w3.org/TR/2001/REC-SVG-20010904/DTD/svg10.dtd">
<svg version="1.0" xmlns="http://www.w3.org/2000/svg"
 width="2048.000000pt" height="2048.000000pt" viewBox="0 0 2048.000000 2048.000000"
 preserveAspectRatio="xMidYMid meet">

<g transform="translate(0.000000,2048.000000) scale(0.100000,-0.100000)"
fill="#000000" stroke="none">
<path d="M2045 20473 c-315 -39 -534 -103 -778 -224 -243 -122 -413 -244 -602
-434 -357 -356 -571 -784 -645 -1282 -20 -138 -20 -153 -20 -8293 0 -8140 0
-8155 20 -8293 73 -498 290 -928 645 -1282 347 -347 746 -552 1250 -642 96
-17 469 -18 8320 -18 7938 0 8224 1 8330 18 488 82 905 296 1250 642 346 345
560 762 642 1250 17 106 18 392 18 8325 0 7933 -1 8219 -18 8325 -82 489 -295
904 -642 1250 -338 338 -726 542 -1215 637 l-115 22 -8205 2 c-4513 0 -8218
-1 -8235 -3z m2775 -2848 c187 -13 439 -83 624 -176 297 -148 564 -390 737
-669 285 -459 350 -1026 178 -1545 -206 -619 -726 -1077 -1371 -1207 -97 -19
-144 -23 -333 -23 -223 0 -270 5 -440 47 -641 158 -1149 667 -1315 1319 -70
272 -69 617 0 891 115 447 390 833 770 1080 187 122 413 214 630 258 110 23
300 39 385 34 28 -2 88 -6 135 -9z m9680 -4641 c501 -47 927 -166 1340 -374
822 -416 1387 -1162 1639 -2168 49 -197 84 -385 110 -592 47 -373 46 -308 46
-3750 l0 -3255 -1517 -3 -1518 -2 0 2612 c0 1599 -4 2687 -10 2803 -31 597
-146 1017 -371 1355 -76 116 -253 296 -359 367 -261 174 -548 252 -932 253
-974 1 -1599 -529 -1792 -1519 -63 -323 -60 -147 -63 -3144 l-4 -2727 -1462 2
-1462 3 0 4930 0 4930 1462 3 1463 2 2 -662 3 -662 77 115 c239 355 555 668
928 918 539 362 1101 544 1805 585 107 6 456 -5 615 -20z m-8310 -5209 l0
-4935 -1525 0 -1525 0 0 4935 0 4935 1525 0 1525 0 0 -4935z"/>
</g>
</svg>
